<svg xmlns="http://www.w3.org/2000/svg" data-name="Layer 3" viewBox="0 0 64 64" id="DatabaseMaintenance"><path d="M46 26.118V11c0-5.908-11.067-9-22-9S2 5.092 2 11v42c0 5.908 11.067 9 22 9a49.89 49.89 0 0 0 12.731-1.539A17.7 17.7 0 0 0 44 62a18 18 0 0 0 2-35.882ZM24 6c11.166 0 18 3.237 18 5s-6.834 5-18 5-18-3.237-18-5 6.834-5 18-5ZM6 16.4l.042.022q.355.2.736.388c.064.032.131.062.2.093q.307.148.627.289l.227.1q.354.15.723.292l.121.047A45.614 45.614 0 0 0 24 20a45.614 45.614 0 0 0 15.328-2.372l.121-.047q.37-.142.723-.292l.227-.1q.321-.141.627-.289l.2-.093q.38-.189.736-.388L42 16.4V25a.7.7 0 0 1-.061.252c-.012.03-.037.066-.054.1a1.659 1.659 0 0 1-.136.221c-.033.045-.076.093-.116.14a3.403 3.403 0 0 1-.564.527c-.041.007-.081.02-.122.027-.547.094-1.089.21-1.625.354-.087.023-.173.05-.26.075-.552.157-1.1.334-1.632.544l-.093.039c-.528.21-1.044.448-1.549.707-.059.03-.12.058-.179.089-.5.263-.982.553-1.454.862-.038.025-.079.044-.116.069-.39.084-.8.155-1.2.229-.338.061-.666.13-1.013.184-.488.076-1 .134-1.5.195-.338.041-.668.091-1.012.126-.569.057-1.154.093-1.737.131-.3.019-.584.049-.882.064Q25.362 30 24 30c-11.166 0-18-3.237-18-5Zm0 14 .037.019c.291.164.6.32.912.473l.194.092C11.389 32.976 17.714 34 24 34c.125 0 .247-.009.372-.009.748 0 1.491-.025 2.231-.056a54.087 54.087 0 0 0 2.588-.165l-.023.036q-.348.507-.66 1.037c-.055.094-.105.19-.159.285a18.03 18.03 0 0 0-.429.8c-.064.128-.125.256-.186.386q-.179.379-.34.766c-.053.128-.108.254-.158.383q-.184.471-.34.952c-.023.071-.05.14-.072.21-.122.389-.229.784-.324 1.182-.028.117-.05.236-.076.353a18.058 18.058 0 0 0-.236 1.303c-.04.282-.073.565-.1.85-.013.136-.028.272-.037.409q-.04.554-.045 1.113c0 .042 0 .083-.005.124h-.123c-.621.032-1.24.041-1.878.041-11.166 0-18-3.237-18-5ZM24 58c-11.166 0-18-3.237-18-5v-8.6l.042.022q.353.2.732.387c.074.037.151.071.226.107a19.075 19.075 0 0 0 .88.396q.275.116.559.226c.1.041.208.081.315.121.223.083.451.164.682.242.074.025.145.052.22.076q.454.151.928.29l.289.082c.23.066.463.13.7.192l.363.092q.336.084.678.163l.363.083q.421.093.852.177l.2.04q.528.1 1.068.191l.337.054q.386.062.776.118l.4.055q.384.052.771.1l.37.044q.514.057 1.034.105l.11.011q.574.052 1.153.091l.359.022q.411.026.823.046l.409.018q.408.017.818.027l.372.01c.392.008.784.013 1.175.013.7 0 1.382-.011 1.97-.04.126 0 .242 0 .354-.013h.111c.012.054.029.105.042.159.077.334.165.664.26.99.025.086.045.173.072.258q.189.613.42 1.207c.04.1.085.2.127.3a16.056 16.056 0 0 0 .57 1.253q.2.4.423.791c.065.114.128.229.2.342q.279.467.585.915c.034.05.065.1.1.151q.372.533.783 1.037c.049.06.1.117.15.176q.338.405.7.791c.08.085.163.169.245.253q.343.351.706.682c.051.047.1.1.148.143A51.146 51.146 0 0 1 24 58Zm20 0a13.732 13.732 0 0 1-6.208-1.455 13.88 13.88 0 0 1-7.7-10.923A14.191 14.191 0 0 1 30 44a14.029 14.029 0 0 1 5.969-11.474 13.916 13.916 0 0 1 6.17-2.4A14.4 14.4 0 0 1 44 30a14 14 0 0 1 0 28Z" fill="#ffdb6e" class="color000000 svgShape"></path><path d="M50 42h-4v-7a2 2 0 0 0-4 0v9a2 2 0 0 0 2 2h6a2 2 0 0 0 0-4Z" fill="#ffdb6e" class="color000000 svgShape"></path></svg>