<svg xmlns="http://www.w3.org/2000/svg" viewBox="0 0 64 64" id="SqlFile"><rect width="40" height="54" x="21" y="7" fill="#ffd556" class="colorff7956 svgShape"></rect><path fill="#ffdb6e" d="M49,7l8,8H47a2.006,2.006,0,0,1-2-2V3Z" class="colorffda44 svgShape"></path><path fill="#ffe699" d="M57,15V57H17V3H45V13a2.006,2.006,0,0,0,2,2Z" class="colorffeb99 svgShape"></path><rect width="50" height="20" x="3" y="22" fill="#ffc924" class="color2488ff svgShape"></rect><path d="M61,6H49.414L45.707,2.293A1,1,0,0,0,45,2H17a1,1,0,0,0-1,1V21H3a1,1,0,0,0-1,1V42a1,1,0,0,0,1,1H16V57a1,1,0,0,0,1,1h3v3a1,1,0,0,0,1,1H61a1,1,0,0,0,1-1V7A1,1,0,0,0,61,6ZM46,5.414,54.586,14H47a1,1,0,0,1-1-1ZM4,23H52V41H4ZM18,43H53a1,1,0,0,0,1-1V22a1,1,0,0,0-1-1H18V4H44v9a3,3,0,0,0,3,3h9V56H18ZM60,60H22V58H57a1,1,0,0,0,1-1V15a1,1,0,0,0-.293-.707L51.414,8H60Z" fill="#000000" class="color000000 svgShape"></path><path d="M37 25H35V38a1 1 0 0 0 1 1h9V37H37zM20 25H12a1 1 0 0 0-1 1v6a1 1 0 0 0 1 1h7v4H13V35H11v3a1 1 0 0 0 1 1h8a1 1 0 0 0 1-1V32a1 1 0 0 0-1-1H13V27h6v2h2V26A1 1 0 0 0 20 25zM32 25H24a1 1 0 0 0-1 1V38a1 1 0 0 0 1 1h8a1 1 0 0 0 1-1V26A1 1 0 0 0 32 25zm-7 2h6v8l-1.2-1.6A1 1 0 0 0 29 33H27v2h1.5L30 37H25z" fill="#000000" class="color000000 svgShape"></path></svg>